<svg width="36" height="23" viewBox="0 0 36 23" fill="none" xmlns="http://www.w3.org/2000/svg">
<path fill-rule="evenodd" clip-rule="evenodd" d="M0.5 11.5001C0.5 11.1686 0.631696 10.8507 0.866116 10.6162C1.10054 10.3818 1.41848 10.2501 1.75 10.2501H31.2325L23.365 2.38511C23.1303 2.1504 22.9984 1.83205 22.9984 1.50011C22.9984 1.16817 23.1303 0.849831 23.365 0.615114C23.5997 0.380397 23.9181 0.248535 24.25 0.248535C24.5819 0.248535 24.9003 0.380397 25.135 0.615114L35.135 10.6151C35.2514 10.7312 35.3438 10.8692 35.4068 11.021C35.4698 11.1729 35.5022 11.3357 35.5022 11.5001C35.5022 11.6645 35.4698 11.8273 35.4068 11.9792C35.3438 12.1311 35.2514 12.269 35.135 12.3851L25.135 22.3851C24.9003 22.6198 24.5819 22.7517 24.25 22.7517C23.9181 22.7517 23.5997 22.6198 23.365 22.3851C23.1303 22.1504 22.9984 21.8321 22.9984 21.5001C22.9984 21.1682 23.1303 20.8498 23.365 20.6151L31.2325 12.7501H1.75C1.41848 12.7501 1.10054 12.6184 0.866116 12.384C0.631696 12.1496 0.5 11.8316 0.5 11.5001Z" fill="white"/>
</svg>
