<svg width="10" height="6" viewBox="0 0 10 6" fill="none" xmlns="http://www.w3.org/2000/svg">
<path fill-rule="evenodd" clip-rule="evenodd" d="M0.625 3C0.625 2.91712 0.657924 2.83763 0.716529 2.77903C0.775134 2.72042 0.85462 2.6875 0.9375 2.6875H8.30813L6.34125 0.721248C6.28257 0.662569 6.24961 0.582983 6.24961 0.499998C6.24961 0.417013 6.28257 0.337427 6.34125 0.278748C6.39993 0.220069 6.47952 0.187103 6.5625 0.187103C6.64548 0.187103 6.72507 0.220069 6.78375 0.278748L9.28375 2.77875C9.31285 2.80778 9.33594 2.84226 9.3517 2.88023C9.36745 2.91819 9.37556 2.95889 9.37556 3C9.37556 3.0411 9.36745 3.0818 9.3517 3.11977C9.33594 3.15773 9.31285 3.19222 9.28375 3.22125L6.78375 5.72125C6.72507 5.77993 6.64548 5.81289 6.5625 5.81289C6.47952 5.81289 6.39993 5.77993 6.34125 5.72125C6.28257 5.66257 6.24961 5.58298 6.24961 5.5C6.24961 5.41701 6.28257 5.33743 6.34125 5.27875L8.30813 3.3125H0.9375C0.85462 3.3125 0.775134 3.27957 0.716529 3.22097C0.657924 3.16236 0.625 3.08288 0.625 3V3Z" fill="white"/>
</svg>
