<svg width="32" height="32" viewBox="0 0 32 32" fill="none" xmlns="http://www.w3.org/2000/svg">
<path d="M4.06902 21.0792C4.42074 21.4306 4.89763 21.628 5.39481 21.6278C5.892 21.6277 6.36876 21.4301 6.72027 21.0784L15.9987 11.7944L25.2828 21.0728C25.6365 21.4143 26.1102 21.6031 26.6018 21.5987C27.0934 21.5943 27.5636 21.3969 27.9112 21.0492C28.2587 20.7014 28.4558 20.2311 28.4599 19.7395C28.464 19.2479 28.2749 18.7743 27.9332 18.4208L17.3231 7.8171C16.9714 7.4657 16.4945 7.26838 15.9973 7.26853C15.5002 7.26868 15.0234 7.46629 14.6719 7.81791L4.06822 18.428C3.71682 18.7797 3.5195 19.2566 3.51965 19.7538C3.5198 20.251 3.71741 20.7277 4.06902 21.0792V21.0792Z" fill="#F2785C"/>
</svg>
