<svg width="220" height="40" viewBox="0 0 220 40" fill="none" xmlns="http://www.w3.org/2000/svg">
<g filter="url(#filter0_d_10_23)">
<path d="M6.59123 8.8325C6.83304 8.525 7.15151 8.10875 7.40654 7.81125C8.17032 6.99125 8.26942 6.88375 8.96449 6.2775C9.17063 6.1175 9.41509 5.925 9.65426 5.74375C7.89018 7.15625 7.66554 8.72 9.28427 9.68625C9.28163 9.68625 9.28163 9.68625 9.28163 9.68875C11.5452 10.9788 16.5058 10.7 20.4198 9.0475C24.211 7.4475 25.6103 5.15875 23.7392 3.79875C22.0967 3.5075 20.1384 3.47375 18.0664 3.73625L17.851 3.4L18.0294 2.8425C19.2477 2.73875 20.4053 2.76375 21.4043 2.925C21.6461 2.96375 21.9646 3.03 22.2024 3.0775C22.6623 3.18375 22.912 3.2475 23.212 3.33875C23.5185 3.425 23.7802 3.51125 24.2361 3.67125C24.6827 3.8375 24.8756 3.9125 25.2337 4.08125C25.6348 4.25433 26.0244 4.4501 26.4005 4.6675C29.3817 6.44125 27.5277 9.6775 22.2672 11.895C17.0211 14.105 10.3361 14.4525 7.34047 12.7C7.33915 12.6975 7.33518 12.695 7.32725 12.6925H7.33254C5.69663 11.7125 5.52484 10.29 6.59123 8.8325ZM20.2401 21.2325L20.1978 19.24L18.7007 17.665C13.7546 18.725 8.89313 18.4975 6.18952 16.9913C6.18027 16.9812 6.1578 16.9713 6.14855 16.9613C4.61835 16.07 4.24043 14.92 4.35539 13.67C3.99729 15.4987 3.96822 16.1587 4.01975 17.7237C4.08318 18.7037 4.68178 19.6075 5.88559 20.32L5.89484 20.33C8.77684 22.025 14.7814 22.3925 20.2401 21.2325ZM26.4838 23.5138C19.5028 26.1625 10.7656 26.3188 6.97047 23.8675C7.38032 24.815 7.93798 25.6989 8.62488 26.49C12.1081 28.74 20.1278 28.5963 26.5327 26.165C30.2815 24.7437 32.6469 22.8525 33.2679 21.08L33.4424 20.5462C33.856 19.1938 33.9339 18.0675 34 17.065C33.9247 19.2413 31.2145 21.7162 26.4838 23.5138ZM11.0735 28.615C11.2928 28.8125 11.9826 29.6138 15.4777 30.4988C16.4225 30.6963 18.8011 31.33 23.1948 30.4088L23.2212 30.03L22.8737 29.515C18.7971 30.4275 14.2686 30.1225 11.0735 28.615ZM21.1611 12.8538L24.873 15.515C24.873 15.515 25.6672 16.0562 24.9179 16.4362C24.1713 16.8125 22.2539 17.7337 22.2539 17.7337L20.3604 17.065L19.4103 17.465L21.0858 18.8412L21.099 20.9825L22.0835 20.5688L22.7363 18.76C22.7363 18.76 24.7409 18.03 25.5363 17.755C26.3358 17.4862 26.2288 18.4062 26.2288 18.4062L25.835 22.795L27.1432 22.245L29.2971 16.3237C29.2971 16.3237 30.4388 15.7987 31.2422 15.3375C32.0443 14.8763 32.3192 14.1112 32.3192 14.1112C32.3192 14.1112 31.5369 13.7925 30.6357 14.0487C29.7345 14.3025 28.5597 14.755 28.5597 14.755L22.4654 12.3062L21.1611 12.8538ZM13.308 4.43375L15.8279 6.3325L16.5164 6.235L15.1447 4.53125C15.1447 4.53125 14.8461 4.17875 15.2478 4.095C15.6522 4.01 16.6749 3.8125 16.6749 3.8125L17.444 4.39375L17.962 4.32125L17.3753 3.43875L17.6845 2.46L17.1837 2.52875L16.5904 3.27375C16.5904 3.27375 15.5491 3.36625 15.1395 3.39875C14.7272 3.42875 14.9042 3.01 14.9042 3.01L15.6944 1L15.002 1.09625L13.1785 3.6075C13.1785 3.6075 12.5706 3.7125 12.1306 3.83125C11.6892 3.94875 11.4567 4.27125 11.4567 4.27125C11.4567 4.27125 11.7804 4.51875 12.2363 4.51C12.6962 4.50125 13.308 4.43375 13.308 4.43375ZM25.7623 28.8312L24.1317 28.025L23.7564 28.1488L24.7224 28.9662C24.7224 28.9662 24.9285 29.1325 24.7118 29.2212C24.4951 29.3088 23.9427 29.5238 23.9427 29.5238L23.4868 29.3313L23.2159 29.4237L23.5952 29.8062L23.5582 30.365L23.841 30.2725L24.0524 29.8188C24.0524 29.8188 24.6259 29.6575 24.8545 29.6C25.0818 29.5412 25.0302 29.7938 25.0302 29.7938L24.8148 31L25.1915 30.8762L25.9301 29.2812C25.9301 29.2812 26.2565 29.16 26.4904 29.0487C26.7243 28.9375 26.8168 28.7325 26.8168 28.7325C26.8168 28.7325 26.6093 28.625 26.353 28.6787C26.0953 28.73 25.7623 28.8312 25.7623 28.8312Z" fill="white"/>
<path d="M50.944 12.28V31H45.696V12.28H40.288L40.8 8.344H56.064L55.552 12.28H50.944ZM62.007 17.24C62.327 16.1093 62.8603 15.2133 63.607 14.552C64.3537 13.8907 65.2177 13.56 66.199 13.56C67.2017 13.56 68.1083 13.7627 68.919 14.168L67.799 18.04C67.1377 17.848 66.5723 17.752 66.103 17.752C65.271 17.752 64.5137 18.0613 63.831 18.68C63.1697 19.2987 62.839 20.2053 62.839 21.4V31H57.943V18.936L57.591 14.2L61.303 13.72L61.879 17.24H62.007ZM77.4905 19.352C77.4905 18.648 77.3412 18.136 77.0425 17.816C76.7438 17.4747 76.1678 17.304 75.3145 17.304C74.4612 17.304 73.0532 17.6133 71.0905 18.232L69.7145 15.224C70.4398 14.8187 71.4425 14.4453 72.7225 14.104C74.0238 13.7413 75.2932 13.56 76.5305 13.56C77.7892 13.56 78.8345 13.7093 79.6665 14.008C80.5198 14.3067 81.1278 14.7547 81.4905 15.352C81.8745 15.928 82.1198 16.504 82.2265 17.08C82.3545 17.656 82.4185 18.3813 82.4185 19.256V25.272C82.4185 26.0613 82.4932 26.7013 82.6425 27.192C82.8132 27.6827 83.1652 28.216 83.6985 28.792L80.9145 31.384C80.4238 31.1493 79.9438 30.7973 79.4745 30.328C79.0265 29.8587 78.6958 29.4213 78.4825 29.016H78.3545C77.1172 30.5947 75.5492 31.384 73.6505 31.384C70.5785 31.384 69.0425 29.7947 69.0425 26.616C69.0425 24.9307 69.5225 23.672 70.4825 22.84C71.4638 22.008 72.8718 21.432 74.7065 21.112L77.4905 20.632V19.352ZM73.6825 26.104C73.6825 27.1493 74.2372 27.672 75.3465 27.672C76.1998 27.672 76.9252 27.3733 77.5225 26.776V23.768C76.1572 23.96 75.1758 24.2267 74.5785 24.568C73.9812 24.888 73.6825 25.4 73.6825 26.104ZM93.7608 13.688L98.2408 14.2L94.0168 31H88.2888L83.8407 14.168L88.5768 13.688L91.1048 26.648H91.2968L93.7608 13.688ZM106.985 13.56C109.118 13.56 110.686 14.1467 111.689 15.32C112.521 16.28 113.033 17.88 113.225 20.12C113.289 21.016 113.321 22.136 113.321 23.48L111.049 23.8H104.457C104.457 25.0587 104.691 26.008 105.161 26.648C105.63 27.2667 106.462 27.576 107.657 27.576C108.873 27.576 110.334 27.2667 112.041 26.648L113.033 29.656C111.006 30.808 108.894 31.384 106.697 31.384C101.726 31.384 99.2405 28.44 99.2405 22.552C99.2405 19.7787 99.8805 17.592 101.161 15.992C102.462 14.3707 104.403 13.56 106.985 13.56ZM108.073 18.104C107.859 17.6133 107.379 17.368 106.633 17.368C105.886 17.368 105.353 17.6453 105.033 18.2C104.713 18.7333 104.531 19.544 104.489 20.632H108.393C108.393 19.416 108.286 18.5733 108.073 18.104ZM120.556 25.144C120.556 26.1893 120.62 26.9573 120.748 27.448C120.898 27.9387 121.25 28.5253 121.804 29.208L118.284 31.8C117.26 30.712 116.556 29.7627 116.172 28.952C115.81 28.12 115.628 26.8827 115.628 25.24V7.384L120.556 6.84V25.144ZM130.894 8.344H139.086C142.009 8.344 144.025 9.03733 145.134 10.424C146.094 11.6613 146.574 13.24 146.574 15.16C146.574 17.144 145.987 18.8827 144.814 20.376C144.195 21.1867 143.257 21.8373 141.998 22.328C140.761 22.7973 139.267 23.032 137.518 23.032H136.142V31H130.894V8.344ZM136.142 11.928V19.256H137.87C138.958 19.256 139.737 18.968 140.206 18.392C140.697 17.816 140.942 16.9093 140.942 15.672C140.942 14.4133 140.739 13.4747 140.334 12.856C139.929 12.2373 139.107 11.928 137.87 11.928H136.142ZM156.177 13.56C157.351 13.56 158.375 13.7413 159.249 14.104C160.124 14.4667 160.807 14.936 161.297 15.512C161.809 16.0667 162.215 16.76 162.513 17.592C163.004 18.9573 163.249 20.632 163.249 22.616C163.249 25.6667 162.396 27.9813 160.689 29.56C159.388 30.776 157.596 31.384 155.313 31.384C154.14 31.384 153.116 31.2027 152.241 30.84C151.367 30.4773 150.673 30.0187 150.161 29.464C149.671 28.888 149.265 28.184 148.945 27.352C148.455 26.0293 148.209 24.3547 148.209 22.328C148.209 20.4507 148.583 18.7973 149.329 17.368C150.631 14.8293 152.913 13.56 156.177 13.56ZM158.033 22.552C158.033 20.6107 157.884 19.2667 157.585 18.52C157.287 17.752 156.647 17.368 155.665 17.368C154.705 17.368 154.087 17.7307 153.809 18.456C153.553 19.1813 153.425 20.504 153.425 22.424C153.425 24.344 153.575 25.688 153.873 26.456C154.172 27.2027 154.812 27.576 155.793 27.576C156.775 27.576 157.393 27.224 157.649 26.52C157.905 25.7947 158.033 24.472 158.033 22.552ZM169.82 17.24C170.14 16.1093 170.673 15.2133 171.42 14.552C172.166 13.8907 173.03 13.56 174.012 13.56C175.014 13.56 175.921 13.7627 176.732 14.168L175.612 18.04C174.95 17.848 174.385 17.752 173.916 17.752C173.084 17.752 172.326 18.0613 171.644 18.68C170.982 19.2987 170.652 20.2053 170.652 21.4V31H165.756V18.936L165.404 14.2L169.116 13.72L169.692 17.24H169.82ZM183.639 13.816H187.959L187.383 17.368H183.639V24.696C183.639 25.784 183.788 26.5413 184.087 26.968C184.386 27.3947 184.898 27.608 185.623 27.608C185.922 27.608 186.53 27.5013 187.447 27.288L188.311 30.136C187.906 30.456 187.244 30.744 186.327 31C185.431 31.256 184.61 31.384 183.863 31.384C181.751 31.384 180.364 30.8507 179.703 29.784C179.063 28.696 178.743 26.9253 178.743 24.472V17.368H176.279L176.727 14.168L178.839 13.88L179.031 10.68L183.639 9.304V13.816ZM197.334 19.352C197.334 18.648 197.185 18.136 196.886 17.816C196.588 17.4747 196.012 17.304 195.158 17.304C194.305 17.304 192.897 17.6133 190.934 18.232L189.558 15.224C190.284 14.8187 191.286 14.4453 192.566 14.104C193.868 13.7413 195.137 13.56 196.374 13.56C197.633 13.56 198.678 13.7093 199.51 14.008C200.364 14.3067 200.972 14.7547 201.334 15.352C201.718 15.928 201.964 16.504 202.07 17.08C202.198 17.656 202.262 18.3813 202.262 19.256V25.272C202.262 26.0613 202.337 26.7013 202.486 27.192C202.657 27.6827 203.009 28.216 203.542 28.792L200.758 31.384C200.268 31.1493 199.788 30.7973 199.318 30.328C198.87 29.8587 198.54 29.4213 198.326 29.016H198.198C196.961 30.5947 195.393 31.384 193.494 31.384C190.422 31.384 188.886 29.7947 188.886 26.616C188.886 24.9307 189.366 23.672 190.326 22.84C191.308 22.008 192.716 21.432 194.55 21.112L197.334 20.632V19.352ZM193.526 26.104C193.526 27.1493 194.081 27.672 195.19 27.672C196.044 27.672 196.769 27.3733 197.366 26.776V23.768C196.001 23.96 195.02 24.2267 194.422 24.568C193.825 24.888 193.526 25.4 193.526 26.104ZM210.213 25.144C210.213 26.1893 210.277 26.9573 210.405 27.448C210.554 27.9387 210.906 28.5253 211.461 29.208L207.941 31.8C206.917 30.712 206.213 29.7627 205.829 28.952C205.466 28.12 205.285 26.8827 205.285 25.24V7.384L210.213 6.84V25.144Z" fill="white"/>
</g>
<defs>
<filter id="filter0_d_10_23" x="0" y="1" width="215.461" height="38.8" filterUnits="userSpaceOnUse" color-interpolation-filters="sRGB">
<feFlood flood-opacity="0" result="BackgroundImageFix"/>
<feColorMatrix in="SourceAlpha" type="matrix" values="0 0 0 0 0 0 0 0 0 0 0 0 0 0 0 0 0 0 127 0" result="hardAlpha"/>
<feOffset dy="4"/>
<feGaussianBlur stdDeviation="2"/>
<feComposite in2="hardAlpha" operator="out"/>
<feColorMatrix type="matrix" values="0 0 0 0 0 0 0 0 0 0 0 0 0 0 0 0 0 0 0.25 0"/>
<feBlend mode="normal" in2="BackgroundImageFix" result="effect1_dropShadow_10_23"/>
<feBlend mode="normal" in="SourceGraphic" in2="effect1_dropShadow_10_23" result="shape"/>
</filter>
</defs>
</svg>
