<svg width="35" height="32" viewBox="0 0 35 32" fill="none" xmlns="http://www.w3.org/2000/svg">
<path d="M7.29167 29.2284C5.93796 29.2284 4.63969 28.6699 3.68248 27.6759C2.72526 26.6819 2.1875 25.3337 2.1875 23.9279C2.1875 22.5221 2.72526 21.1739 3.68248 20.1799C4.63969 19.1859 5.93796 18.6274 7.29167 18.6274C8.64538 18.6274 9.94364 19.1859 10.9009 20.1799C11.8581 21.1739 12.3958 22.5221 12.3958 23.9279C12.3958 25.3337 11.8581 26.6819 10.9009 27.6759C9.94364 28.6699 8.64538 29.2284 7.29167 29.2284ZM7.29167 16.3558C5.3578 16.3558 3.50313 17.1535 2.13568 18.5736C0.768227 19.9936 0 21.9196 0 23.9279C0 25.9361 0.768227 27.8621 2.13568 29.2822C3.50313 30.7022 5.3578 31.5 7.29167 31.5C9.22554 31.5 11.0802 30.7022 12.4477 29.2822C13.8151 27.8621 14.5833 25.9361 14.5833 23.9279C14.5833 21.9196 13.8151 19.9936 12.4477 18.5736C11.0802 17.1535 9.22554 16.3558 7.29167 16.3558ZM21.5833 13.3269H27.7083V10.601H23.0417L20.2125 5.6488C19.7896 4.89159 18.9583 4.39183 18.0833 4.39183C17.3979 4.39183 16.7708 4.67957 16.3333 5.14904L10.9375 10.7373C10.4854 11.2067 10.2083 11.8125 10.2083 12.5697C10.2083 13.5238 10.6896 14.3264 11.4479 14.7959L16.3333 17.8702V25.4423H18.9583V15.5986L15.6771 13.0998L19.0604 9.54087L21.5833 13.3269ZM27.7083 29.2284C26.3546 29.2284 25.0564 28.6699 24.0991 27.6759C23.1419 26.6819 22.6042 25.3337 22.6042 23.9279C22.6042 22.5221 23.1419 21.1739 24.0991 20.1799C25.0564 19.1859 26.3546 18.6274 27.7083 18.6274C29.062 18.6274 30.3603 19.1859 31.3175 20.1799C32.2747 21.1739 32.8125 22.5221 32.8125 23.9279C32.8125 25.3337 32.2747 26.6819 31.3175 27.6759C30.3603 28.6699 29.062 29.2284 27.7083 29.2284ZM27.7083 16.3558C25.7745 16.3558 23.9198 17.1535 22.5523 18.5736C21.1849 19.9936 20.4167 21.9196 20.4167 23.9279C20.4167 25.9361 21.1849 27.8621 22.5523 29.2822C23.9198 30.7022 25.7745 31.5 27.7083 31.5C28.6659 31.5 29.6141 31.3041 30.4987 30.9236C31.3834 30.5431 32.1872 29.9853 32.8643 29.2822C33.5414 28.579 34.0785 27.7443 34.445 26.8256C34.8114 25.9069 35 24.9223 35 23.9279C35 22.9335 34.8114 21.9489 34.445 21.0302C34.0785 20.1115 33.5414 19.2767 32.8643 18.5736C32.1872 17.8705 31.3834 17.3127 30.4987 16.9322C29.6141 16.5516 28.6659 16.3558 27.7083 16.3558ZM23.3333 5.45192C24.7917 5.45192 25.9583 4.24039 25.9583 2.72596C25.9583 1.21154 24.7917 0 23.3333 0C21.875 0 20.7083 1.21154 20.7083 2.72596C20.7083 4.24039 21.875 5.45192 23.3333 5.45192Z" fill="white"/>
</svg>
