<svg width="40" height="30" viewBox="0 0 40 30" fill="none" xmlns="http://www.w3.org/2000/svg">
<path d="M35.9537 28.6364C35.9537 28.998 35.8116 29.3449 35.5586 29.6006C35.3057 29.8563 34.9626 30 34.6049 30H10.327C9.96924 30 9.62617 29.8563 9.37323 29.6006C9.12028 29.3449 8.97818 28.998 8.97818 28.6364C8.97818 28.2747 9.12028 27.9279 9.37323 27.6721C9.62617 27.4164 9.96924 27.2727 10.327 27.2727H34.6049C34.9626 27.2727 35.3057 27.4164 35.5586 27.6721C35.8116 27.9279 35.9537 28.2747 35.9537 28.6364ZM40 15V19.0909C40 19.4526 39.8579 19.7994 39.605 20.0552C39.352 20.3109 39.0089 20.4546 38.6512 20.4546H8.94446C7.4933 20.4596 6.07962 19.9889 4.91541 19.1131C3.7512 18.2372 2.89921 17.0034 2.4872 15.5966L0.109984 7.60229C-0.00807283 7.19318 -0.0314623 6.76209 0.0416252 6.34238C0.114713 5.92267 0.282318 5.52558 0.531477 5.18183C0.78626 4.84277 1.11515 4.56787 1.49244 4.37863C1.86973 4.18938 2.2852 4.09092 2.70638 4.09093H5.60624C5.80315 4.09134 5.99752 4.13588 6.17535 4.22136C6.35318 4.30684 6.51006 4.43111 6.63468 4.58524L9.60199 8.18183H12.5019L10.9845 3.59661C10.8479 3.18595 10.81 2.74831 10.874 2.31991C10.938 1.89152 11.1021 1.48471 11.3526 1.13317C11.603 0.781637 11.9328 0.495491 12.3144 0.298434C12.696 0.101378 13.1186 -0.000918029 13.5472 1.86481e-05H16.3964C16.5837 -0.000977917 16.7692 0.0379787 16.9406 0.114344C17.112 0.19071 17.2655 0.302767 17.3912 0.4432L24.4048 8.18183H33.2561C35.0447 8.18183 36.76 8.90017 38.0248 10.1788C39.2895 11.4575 40 13.1917 40 15ZM37.3024 15C37.298 13.9164 36.8703 12.8785 36.1124 12.1123C35.3545 11.346 34.3279 10.9136 33.2561 10.9091H23.8147C23.6274 10.9101 23.442 10.8711 23.2706 10.7948C23.0992 10.7184 22.9456 10.6064 22.82 10.4659L15.8064 2.72729H13.5472L15.6546 9.11933C15.7206 9.32433 15.7382 9.54211 15.706 9.75523C15.6738 9.96835 15.5927 10.1709 15.4692 10.3466C15.3446 10.5224 15.18 10.6654 14.9892 10.7633C14.7985 10.8612 14.5872 10.9112 14.3733 10.9091H8.97818C8.78127 10.9087 8.58691 10.8641 8.40907 10.7787C8.23124 10.6932 8.07436 10.5689 7.94974 10.4148L4.98243 6.8182H2.68952L5.06673 14.8125C5.31458 15.6569 5.82641 16.3973 6.52551 16.9227C7.22461 17.4482 8.07332 17.7305 8.94446 17.7273H37.3024V15Z" fill="white"/>
</svg>
