<svg width="35" height="35" viewBox="0 0 35 35" fill="none" xmlns="http://www.w3.org/2000/svg">
<path d="M9.23611 19.4444C9.88073 19.4444 10.499 19.1884 10.9548 18.7326C11.4106 18.2767 11.6667 17.6585 11.6667 17.0139C11.6667 16.3693 11.4106 15.751 10.9548 15.2952C10.499 14.8394 9.88073 14.5833 9.23611 14.5833C8.59149 14.5833 7.97327 14.8394 7.51745 15.2952C7.06163 15.751 6.80556 16.3693 6.80556 17.0139C6.80556 17.6585 7.06163 18.2767 7.51745 18.7326C7.97327 19.1884 8.59149 19.4444 9.23611 19.4444ZM19.9306 17.0139C19.9306 17.6585 19.6745 18.2767 19.2187 18.7326C18.7628 19.1884 18.1446 19.4444 17.5 19.4444C16.8554 19.4444 16.2372 19.1884 15.7813 18.7326C15.3255 18.2767 15.0694 17.6585 15.0694 17.0139C15.0694 16.3693 15.3255 15.751 15.7813 15.2952C16.2372 14.8394 16.8554 14.5833 17.5 14.5833C18.1446 14.5833 18.7628 14.8394 19.2187 15.2952C19.6745 15.751 19.9306 16.3693 19.9306 17.0139ZM25.7639 19.4444C26.4085 19.4444 27.0267 19.1884 27.4826 18.7326C27.9384 18.2767 28.1944 17.6585 28.1944 17.0139C28.1944 16.3693 27.9384 15.751 27.4826 15.2952C27.0267 14.8394 26.4085 14.5833 25.7639 14.5833C25.1193 14.5833 24.501 14.8394 24.0452 15.2952C23.5894 15.751 23.3333 16.3693 23.3333 17.0139C23.3333 17.6585 23.5894 18.2767 24.0452 18.7326C24.501 19.1884 25.1193 19.4444 25.7639 19.4444ZM11.6667 24.7917C11.6667 25.4363 11.4106 26.0545 10.9548 26.5103C10.499 26.9661 9.88073 27.2222 9.23611 27.2222C8.59149 27.2222 7.97327 26.9661 7.51745 26.5103C7.06163 26.0545 6.80556 25.4363 6.80556 24.7917C6.80556 24.147 7.06163 23.5288 7.51745 23.073C7.97327 22.6172 8.59149 22.3611 9.23611 22.3611C9.88073 22.3611 10.499 22.6172 10.9548 23.073C11.4106 23.5288 11.6667 24.147 11.6667 24.7917ZM17.5 27.2222C18.1446 27.2222 18.7628 26.9661 19.2187 26.5103C19.6745 26.0545 19.9306 25.4363 19.9306 24.7917C19.9306 24.147 19.6745 23.5288 19.2187 23.073C18.7628 22.6172 18.1446 22.3611 17.5 22.3611C16.8554 22.3611 16.2372 22.6172 15.7813 23.073C15.3255 23.5288 15.0694 24.147 15.0694 24.7917C15.0694 25.4363 15.3255 26.0545 15.7813 26.5103C16.2372 26.9661 16.8554 27.2222 17.5 27.2222ZM0 6.07639C0 4.46483 0.640189 2.91928 1.77973 1.77973C2.91928 0.640189 4.46483 0 6.07639 0H28.9236C30.5352 0 32.0807 0.640189 33.2203 1.77973C34.3598 2.91928 35 4.46483 35 6.07639V28.9236C35 30.5352 34.3598 32.0807 33.2203 33.2203C32.0807 34.3598 30.5352 35 28.9236 35H6.07639C4.46483 35 2.91928 34.3598 1.77973 33.2203C0.640189 32.0807 0 30.5352 0 28.9236V6.07639ZM6.07639 2.43056C5.10945 2.43056 4.18212 2.81467 3.4984 3.4984C2.81467 4.18212 2.43056 5.10945 2.43056 6.07639V7.77778H32.5694V6.07639C32.5694 5.10945 32.1853 4.18212 31.5016 3.4984C30.8179 2.81467 29.8905 2.43056 28.9236 2.43056H6.07639ZM2.43056 28.9236C2.43056 29.8905 2.81467 30.8179 3.4984 31.5016C4.18212 32.1853 5.10945 32.5694 6.07639 32.5694H28.9236C29.8905 32.5694 30.8179 32.1853 31.5016 31.5016C32.1853 30.8179 32.5694 29.8905 32.5694 28.9236V10.2083H2.43056V28.9236Z" fill="white"/>
</svg>
